<svg version="1.1" id="Layer_1" xmlns="http://www.w3.org/2000/svg" xmlns:xlink="http://www.w3.org/1999/xlink" x="0px" y="0px"
	 width="103.577px" height="30px" viewBox="0 0 103.577 30" enable-background="new 0 0 103.577 30" xml:space="preserve">
<path fill="#D1EFDD" d="M5.72,11.689c-0.385-0.71-0.981-1.071-1.786-1.083c-0.469,0-0.86,0.144-1.173,0.433
	c-0.313,0.288-0.463,0.631-0.451,1.028c0,0.288,0.141,0.548,0.424,0.776c0.282,0.229,0.731,0.391,1.344,0.487
	c1.456,0.253,2.511,0.743,3.166,1.471C7.9,15.529,8.227,16.362,8.227,17.3c0,1.034-0.391,1.952-1.173,2.751
	c-0.782,0.8-1.756,1.2-2.923,1.2C2.279,21.227,0.902,20.289,0,18.436l1.822-0.92c0.565,1.167,1.347,1.75,2.346,1.75
	c0.577,0.012,1.076-0.189,1.497-0.604s0.632-0.899,0.632-1.452c0.012-0.372-0.151-0.743-0.487-1.11
	c-0.337-0.366-0.932-0.628-1.786-0.785c-1.155-0.168-2.039-0.52-2.652-1.055c-0.614-0.535-0.92-1.175-0.92-1.921
	c-0.024-0.89,0.288-1.711,0.938-2.463S2.9,8.748,3.97,8.748c1.503,0.036,2.622,0.746,3.356,2.129L5.72,11.689z"/>
<path fill="#D1EFDD" d="M17.809,21.035h-1.697l-4.619-8.191v8.191H9.58V8.947h1.913l4.402,7.722V8.947h1.913v12.088H17.809z"/>
<path fill="#D1EFDD" d="M29.084,21.035h-2.02l-1.19-3.392h-3.772l-1.19,3.392h-2.039l4.15-12.088h1.912L29.084,21.035z
	 M25.187,15.694l-1.19-3.392l-1.227,3.392H25.187z"/>
<path fill="#D1EFDD" d="M38.267,21.035H30.04v-1.732l5.611-8.444h-5.142V8.947h7.758v1.75l-5.701,8.39h5.701
	C38.267,19.087,38.267,21.035,38.267,21.035z"/>
<path fill="#D1EFDD" d="M47.739,21.035h-8.227v-1.732l5.611-8.444h-5.142V8.947h7.758v1.75l-5.701,8.39h5.701V21.035z"/>
<path fill="#D1EFDD" d="M59.178,8.947l-4.185,6.838v5.25H53.08v-5.25l-4.24-6.838h2.291l2.887,4.673l2.923-4.673
	C56.941,8.947,59.178,8.947,59.178,8.947z"/>
<path fill="#D1EFDD" d="M74.514,21.035h-1.912v-7.001l-2.797,7.001l-2.797-7.001v7.001h-1.913V8.947h1.913l2.797,6.784l2.797-6.784
	h1.912V21.035z"/>
<path fill="#D1EFDD" d="M85.915,21.035h-2.02l-1.191-3.392h-3.77l-1.19,3.392h-2.039l4.15-12.088h1.912L85.915,21.035z
	 M82.018,15.694l-1.19-3.392l-1.226,3.392H82.018z"/>
<path fill="#D1EFDD" d="M91.039,15.785h-2.291v5.25h-1.912V8.947h3.988c0.89,0,1.606,0.129,2.147,0.388
	c0.542,0.259,0.983,0.671,1.326,1.236c0.343,0.565,0.514,1.155,0.514,1.768c0,0.638-0.138,1.215-0.415,1.732
	c-0.276,0.517-0.694,0.935-1.254,1.254C92.582,15.643,91.881,15.797,91.039,15.785z M92.88,12.375c0-0.469-0.141-0.83-0.424-1.082
	c-0.283-0.253-0.598-0.385-0.948-0.397h-2.797v2.977h2.869c0.361,0,0.668-0.132,0.92-0.397C92.753,13.211,92.88,12.844,92.88,12.375
	z"/>
<path fill="#D1EFDD" d="M101.07,11.689c-0.385-0.71-0.981-1.071-1.786-1.083c-0.469,0-0.86,0.144-1.173,0.433
	c-0.313,0.288-0.463,0.631-0.451,1.028c0,0.288,0.141,0.548,0.424,0.776c0.282,0.229,0.731,0.391,1.344,0.487
	c1.456,0.253,2.511,0.743,3.166,1.471c0.656,0.728,0.983,1.561,0.983,2.499c0,1.034-0.391,1.952-1.173,2.751
	c-0.782,0.8-1.756,1.2-2.923,1.2c-1.852-0.024-3.229-0.962-4.131-2.815l1.822-0.92c0.565,1.167,1.347,1.75,2.346,1.75
	c0.577,0.012,1.076-0.189,1.497-0.604c0.421-0.415,0.632-0.899,0.632-1.452c0.012-0.372-0.151-0.743-0.487-1.11
	c-0.337-0.366-0.932-0.628-1.786-0.785c-1.155-0.168-2.039-0.52-2.652-1.055c-0.614-0.535-0.92-1.175-0.92-1.921
	c-0.024-0.89,0.288-1.711,0.938-2.463c0.65-0.752,1.51-1.128,2.58-1.128c1.503,0.036,2.622,0.746,3.356,2.129L101.07,11.689z"/>
</svg>
